<svg width="240" height="28" viewBox="0 0 240 28" fill="none" xmlns="http://www.w3.org/2000/svg">
<g clip-path="url(#clip0_45_418)">
<path d="M33.498 1.99862H40.0272V21.2667H41.9045V1.99862H48.258V0.35437H33.498V1.99862Z" fill="url(#paint0_linear_45_418)"/>
<path d="M53.9779 0.35437H52.1006V21.2667H53.9779V0.35437Z" fill="url(#paint1_linear_45_418)"/>
<path d="M72.4014 19.4309L64.4962 0.35437H60.9268V21.2667H62.9956V2.07525L70.9838 21.206L71.0062 21.2667H73.6913L81.9093 2.06886V21.2667H83.975V0.35437H80.4407L72.4014 19.4309Z" fill="url(#paint2_linear_45_418)"/>
<path d="M92.849 11.3118H101.524V9.66754H92.849V1.99862H102.191V0.35437H90.9717V21.2667H102.453V19.6192H92.849V11.3118Z" fill="url(#paint3_linear_45_418)"/>
<path d="M112.595 1.99862H119.124V21.2667H121.001V1.99862H127.355V0.35437H112.595V1.99862Z" fill="url(#paint4_linear_45_418)"/>
<path d="M145.883 3.05861C145.113 2.10398 144.149 1.34731 143.019 0.810932C141.889 0.274555 140.586 0.00317383 139.146 0.00317383C137.706 0.00317383 136.455 0.26817 135.305 0.794968C134.156 1.32177 133.176 2.08802 132.397 3.07138C131.618 4.05474 131.024 5.2105 130.625 6.51313C130.229 7.81257 130.024 9.26526 130.024 10.8361C130.024 12.4069 130.232 13.8596 130.637 15.159C131.046 16.4616 131.643 17.6046 132.409 18.5561C133.179 19.5107 134.143 20.2674 135.273 20.8037C136.403 21.3401 137.706 21.6115 139.146 21.6115C140.586 21.6115 141.86 21.3433 142.987 20.8197C144.117 20.2929 145.081 19.5426 145.851 18.588C146.62 17.6366 147.214 16.4872 147.623 15.175C148.031 13.866 148.236 12.4069 148.236 10.8361C148.236 9.26526 148.035 7.80299 147.635 6.4844C147.236 5.16261 146.646 4.01004 145.876 3.05541L145.883 3.05861ZM145.918 14.396C145.621 15.4911 145.167 16.468 144.57 17.2949C143.973 18.1219 143.214 18.7796 142.31 19.2553C141.41 19.7278 140.346 19.9704 139.149 19.9704C137.952 19.9704 136.803 19.715 135.902 19.2138C135.002 18.7125 134.248 18.042 133.671 17.2247C133.089 16.4074 132.646 15.4464 132.349 14.3672C132.052 13.2881 131.902 12.1004 131.902 10.8393C131.902 9.57814 132.052 8.38406 132.349 7.29535C132.646 6.20982 133.109 5.22327 133.728 4.36762C134.344 3.51517 135.12 2.8415 136.03 2.36579C136.94 1.89326 137.99 1.65062 139.149 1.65062C140.308 1.65062 141.355 1.89007 142.268 2.36579C143.178 2.8415 143.945 3.4992 144.542 4.32292C145.142 5.14984 145.598 6.13639 145.905 7.25065C146.212 8.37129 146.365 9.57814 146.365 10.8393C146.365 12.1004 146.215 13.2977 145.918 14.3991V14.396Z" fill="url(#paint5_linear_45_418)"/>
<path d="M164.008 0.35437H162.134V21.2667H172.801V19.6192H164.008V0.35437Z" fill="url(#paint6_linear_45_418)"/>
<path d="M179.292 11.3118H187.967V9.66754H179.292V1.99862H188.637V0.35437H177.415V21.2667H188.896V19.6192H179.292V11.3118Z" fill="url(#paint7_linear_45_418)"/>
<path d="M200.435 0.35437H198.299L190.636 21.2667H192.807L195.537 13.7127H203.232L205.929 21.3369H208.017L200.457 0.418225L200.435 0.35437ZM196.026 12.3207L199.327 1.95712L202.931 12.3207H196.026Z" fill="url(#paint8_linear_45_418)"/>
<path d="M221.532 12.0525C221.005 11.596 220.377 11.1713 219.658 10.7914C219.211 10.5552 218.499 10.3221 217.813 10.0986C217.382 9.95811 216.938 9.81125 216.574 9.67077C215.824 9.38342 215.16 9.0865 214.598 8.78958C214.036 8.49585 213.56 8.17338 213.18 7.83176C212.803 7.49333 212.519 7.1134 212.334 6.70154C212.146 6.28968 212.053 5.798 212.053 5.23289C212.053 4.57519 212.184 4.01646 212.446 3.56948C212.708 3.11931 213.052 2.74895 213.474 2.47118C213.898 2.19023 214.393 1.97951 214.952 1.84541C215.514 1.71132 216.098 1.64427 216.686 1.64427C216.852 1.64427 217.059 1.64427 217.289 1.64108C218.154 1.63469 219.342 1.62511 219.92 1.68258C220.59 1.74644 221.325 1.94758 222.168 2.29239L222.263 2.3307L222.761 0.77585L222.678 0.74073C221.772 0.373567 220.798 0.213931 220.147 0.124535C219.211 -0.00317384 217.331 -0.00317383 216.714 -0.00317383C215.916 -0.00317383 215.128 0.0989932 214.368 0.303327C213.608 0.507661 212.902 0.823741 212.28 1.24518C211.651 1.66662 211.137 2.22535 210.754 2.9022C210.371 3.58225 210.176 4.3932 210.176 5.3159C210.176 6.0598 210.3 6.73666 210.546 7.32731C210.792 7.91797 211.146 8.44477 211.597 8.89494C212.044 9.34192 212.609 9.76336 213.27 10.1433C213.927 10.52 214.626 10.8265 215.469 11.1107C216.149 11.3374 216.951 11.6343 217.659 11.8929L218.103 12.0557C218.796 12.308 219.473 12.6751 219.917 13.0359C220.396 13.4254 220.846 13.8117 221.085 14.2619C221.322 14.7057 221.478 15.4241 221.478 16.0434C221.478 16.6628 221.213 17.2822 220.961 17.793C220.728 18.272 220.396 18.6742 219.974 18.9903C219.518 19.3351 218.841 19.6672 218.285 19.8204C217.711 19.9769 216.146 20.1333 215.402 20.1333C214.467 20.1333 212.867 19.9609 211.922 19.8013C211.271 19.6906 210.608 19.5331 209.933 19.3287L209.821 19.2936L209.643 20.8517L209.713 20.8772C209.971 20.973 210.153 21.0496 210.3 21.1071C210.722 21.2795 210.862 21.337 211.632 21.4391C212.73 21.586 214.917 21.6818 215.878 21.6818C216.839 21.6818 218.065 21.5317 218.838 21.3242C219.719 21.0879 220.587 20.6952 221.162 20.277C221.781 19.8268 222.279 19.233 222.643 18.5146C223.007 17.7994 223.189 16.9374 223.189 15.9604C223.189 15.1207 223.046 14.3641 222.761 13.7159C222.477 13.0678 222.062 12.5059 221.532 12.043V12.0525Z" fill="url(#paint9_linear_45_418)"/>
<path d="M239.929 1.99862V0.35437H228.905V21.2667L239.897 21.2635V19.6192H230.779V11.3118H239.843V9.66754H230.779V1.99862H239.929Z" fill="url(#paint10_linear_45_418)"/>
<path d="M239.996 26.075H33.4971V27.4287H239.996V26.075Z" fill="#1D1D1B"/>
<path d="M27.1732 27.3332H0V0.159912H27.1732V27.3332ZM1.15896 26.171H26.0111V1.32206H1.16215V26.1742L1.15896 26.171Z" fill="url(#paint11_linear_45_418)"/>
<path d="M6.74385 4.83435H3.12012V4.02979H11.2041V4.83435H7.67932V14.5594H6.74385V4.83435Z" fill="url(#paint12_linear_45_418)"/>
<path d="M7.77421 14.6551H6.64718V4.93011H3.02344V3.93079H11.299V4.93011H7.77421V14.6551ZM6.83874 14.4604H7.57945V4.73854H11.1042V4.12554H3.21819V4.73854H6.84193V14.4636L6.83874 14.4604Z" fill="url(#paint13_linear_45_418)"/>
<path d="M13.1657 9.24622H9.54199V8.44165H17.626V9.24622H14.1012V18.9712H13.1657V9.24622Z" fill="url(#paint14_linear_45_418)"/>
<path d="M14.1961 19.0669H13.069V9.34185H9.44531V8.34253H17.7208V9.34185H14.1961V19.0669ZM13.2606 18.8721H14.0013V9.1471H17.5261V8.53409H9.63688V9.1471H13.2606V18.8721Z" fill="url(#paint15_linear_45_418)"/>
<path d="M17.6816 12.5923H18.5756V22.2439H23.2434V23.0133H17.6816V12.5923Z" fill="url(#paint16_linear_45_418)"/>
<path d="M23.3414 23.1124H17.585V12.4966H18.6737V22.1482H23.3414V23.1124ZM17.7797 22.9176H23.1499V22.3397H18.4821V12.6881H17.7829V22.9176H17.7797Z" fill="url(#paint17_linear_45_418)"/>
</g>
<defs>
<linearGradient id="paint0_linear_45_418" x1="83.5375" y1="27.7958" x2="170.558" y2="65.323" gradientUnits="userSpaceOnUse">
<stop stop-color="#E31F16"/>
<stop offset="0.67" stop-color="#3B150D"/>
<stop offset="0.89" stop-color="#1D1D1B"/>
<stop offset="1" stop-color="#1D1D1B"/>
</linearGradient>
<linearGradient id="paint1_linear_45_418" x1="84.9346" y1="24.5616" x2="171.952" y2="62.0889" gradientUnits="userSpaceOnUse">
<stop stop-color="#E31F16"/>
<stop offset="0.67" stop-color="#3B150D"/>
<stop offset="0.89" stop-color="#1D1D1B"/>
<stop offset="1" stop-color="#1D1D1B"/>
</linearGradient>
<linearGradient id="paint2_linear_45_418" x1="87.9755" y1="17.5025" x2="174.996" y2="55.0297" gradientUnits="userSpaceOnUse">
<stop stop-color="#E31F16"/>
<stop offset="0.67" stop-color="#3B150D"/>
<stop offset="0.89" stop-color="#1D1D1B"/>
<stop offset="1" stop-color="#1D1D1B"/>
</linearGradient>
<linearGradient id="paint3_linear_45_418" x1="91.7571" y1="8.72888" x2="178.778" y2="46.2561" gradientUnits="userSpaceOnUse">
<stop stop-color="#E31F16"/>
<stop offset="0.67" stop-color="#3B150D"/>
<stop offset="0.89" stop-color="#1D1D1B"/>
<stop offset="1" stop-color="#1D1D1B"/>
</linearGradient>
<linearGradient id="paint4_linear_45_418" x1="95.9383" y1="-0.964225" x2="182.959" y2="36.563" gradientUnits="userSpaceOnUse">
<stop stop-color="#E31F16"/>
<stop offset="0.67" stop-color="#3B150D"/>
<stop offset="0.89" stop-color="#1D1D1B"/>
<stop offset="1" stop-color="#1D1D1B"/>
</linearGradient>
<linearGradient id="paint5_linear_45_418" x1="98.4356" y1="-6.74624" x2="185.453" y2="30.7778" gradientUnits="userSpaceOnUse">
<stop stop-color="#E31F16"/>
<stop offset="0.67" stop-color="#3B150D"/>
<stop offset="0.89" stop-color="#1D1D1B"/>
<stop offset="1" stop-color="#1D1D1B"/>
</linearGradient>
<linearGradient id="paint6_linear_45_418" x1="102.185" y1="-15.4464" x2="189.205" y2="22.0776" gradientUnits="userSpaceOnUse">
<stop stop-color="#E31F16"/>
<stop offset="0.67" stop-color="#3B150D"/>
<stop offset="0.89" stop-color="#1D1D1B"/>
<stop offset="1" stop-color="#1D1D1B"/>
</linearGradient>
<linearGradient id="paint7_linear_45_418" x1="105.314" y1="-22.7035" x2="192.335" y2="14.8238" gradientUnits="userSpaceOnUse">
<stop stop-color="#E31F16"/>
<stop offset="0.67" stop-color="#3B150D"/>
<stop offset="0.89" stop-color="#1D1D1B"/>
<stop offset="1" stop-color="#1D1D1B"/>
</linearGradient>
<linearGradient id="paint8_linear_45_418" x1="107.274" y1="-27.2531" x2="194.295" y2="10.2742" gradientUnits="userSpaceOnUse">
<stop stop-color="#E31F16"/>
<stop offset="0.67" stop-color="#3B150D"/>
<stop offset="0.89" stop-color="#1D1D1B"/>
<stop offset="1" stop-color="#1D1D1B"/>
</linearGradient>
<linearGradient id="paint9_linear_45_418" x1="110.512" y1="-34.7591" x2="197.533" y2="2.76809" gradientUnits="userSpaceOnUse">
<stop stop-color="#E31F16"/>
<stop offset="0.67" stop-color="#3B150D"/>
<stop offset="0.89" stop-color="#1D1D1B"/>
<stop offset="1" stop-color="#1D1D1B"/>
</linearGradient>
<linearGradient id="paint10_linear_45_418" x1="113.373" y1="-41.3904" x2="200.394" y2="-3.86327" gradientUnits="userSpaceOnUse">
<stop stop-color="#E31F16"/>
<stop offset="0.67" stop-color="#3B150D"/>
<stop offset="0.89" stop-color="#1D1D1B"/>
<stop offset="1" stop-color="#1D1D1B"/>
</linearGradient>
<linearGradient id="paint11_linear_45_418" x1="0" y1="13.7481" x2="27.1732" y2="13.7481" gradientUnits="userSpaceOnUse">
<stop stop-color="#E6371E"/>
<stop offset="0.67" stop-color="#3B150D"/>
<stop offset="0.89" stop-color="#1D1D1B"/>
<stop offset="1" stop-color="#1D1D1B"/>
</linearGradient>
<linearGradient id="paint12_linear_45_418" x1="3.12012" y1="9.29458" x2="11.2041" y2="9.29458" gradientUnits="userSpaceOnUse">
<stop stop-color="#E6371E"/>
<stop offset="0.67" stop-color="#3B150D"/>
<stop offset="0.89" stop-color="#1D1D1B"/>
<stop offset="1" stop-color="#1D1D1B"/>
</linearGradient>
<linearGradient id="paint13_linear_45_418" x1="3.02344" y1="9.29456" x2="11.299" y2="9.29456" gradientUnits="userSpaceOnUse">
<stop stop-color="#E6371E"/>
<stop offset="0.67" stop-color="#3B150D"/>
<stop offset="0.89" stop-color="#1D1D1B"/>
<stop offset="1" stop-color="#1D1D1B"/>
</linearGradient>
<linearGradient id="paint14_linear_45_418" x1="9.54518" y1="13.7064" x2="17.626" y2="13.7064" gradientUnits="userSpaceOnUse">
<stop stop-color="#E6371E"/>
<stop offset="0.67" stop-color="#3B150D"/>
<stop offset="0.89" stop-color="#1D1D1B"/>
<stop offset="1" stop-color="#1D1D1B"/>
</linearGradient>
<linearGradient id="paint15_linear_45_418" x1="9.44531" y1="13.7063" x2="17.724" y2="13.7063" gradientUnits="userSpaceOnUse">
<stop stop-color="#E6371E"/>
<stop offset="0.67" stop-color="#3B150D"/>
<stop offset="0.89" stop-color="#1D1D1B"/>
<stop offset="1" stop-color="#1D1D1B"/>
</linearGradient>
<linearGradient id="paint16_linear_45_418" x1="17.6816" y1="17.8028" x2="23.2466" y2="17.8028" gradientUnits="userSpaceOnUse">
<stop stop-color="#E6371E"/>
<stop offset="0.67" stop-color="#3B150D"/>
<stop offset="0.89" stop-color="#1D1D1B"/>
<stop offset="1" stop-color="#1D1D1B"/>
</linearGradient>
<linearGradient id="paint17_linear_45_418" x1="17.585" y1="17.8029" x2="23.3414" y2="17.8029" gradientUnits="userSpaceOnUse">
<stop stop-color="#E6371E"/>
<stop offset="0.67" stop-color="#3B150D"/>
<stop offset="0.89" stop-color="#1D1D1B"/>
<stop offset="1" stop-color="#1D1D1B"/>
</linearGradient>
<clipPath id="clip0_45_418">
<rect width="240" height="27.5212" fill="white"/>
</clipPath>
</defs>
</svg>
