<svg width="41" height="41" viewBox="0 0 41 41" fill="none" xmlns="http://www.w3.org/2000/svg">
<path d="M24.854 22.1641C23.6603 23.2317 22.1471 23.8745 20.5 23.8745C18.8529 23.8745 17.3397 23.2317 16.146 22.1641C11.397 23.9187 8 28.4401 8 33.7438C8 34.0893 8.27954 34.3688 8.625 34.3688H32.375C32.7205 34.3688 33 34.0893 33 33.7438C33 28.4401 29.603 23.9187 24.854 22.1641Z" fill="#F4F4F4"/>
<path d="M26.1994 15.7949C26.0459 12.3672 23.5521 9.62988 20.5001 9.62988C17.4481 9.62988 14.9543 12.3672 14.8008 15.7949C14.8061 15.7959 14.8112 15.7939 14.8165 15.795C15.0765 15.8512 15.3615 15.8796 15.6649 15.8796C17.3879 15.8796 18.9925 14.8783 19.9587 13.201C20.1809 12.8135 20.8193 12.8135 21.0415 13.201C22.0077 14.8783 23.6123 15.8796 25.3353 15.8796C25.6386 15.8796 25.9237 15.8512 26.1837 15.795C26.189 15.7939 26.1941 15.7959 26.1994 15.7949Z" fill="#F4F4F4"/>
<path d="M20.4998 14.6367C19.2888 16.2126 17.5378 17.1291 15.6646 17.1291C15.3816 17.1291 15.1127 17.1025 14.8521 17.0634C15.2535 20.2024 17.6296 22.6238 20.4998 22.6238C23.37 22.6238 25.746 20.2024 26.1475 17.0634C25.8869 17.1025 25.6179 17.1291 25.335 17.1291C23.4618 17.1291 21.7107 16.2126 20.4998 14.6367Z" fill="#F4F4F4"/>
<path d="M14.2939 19.9621H14.4565C13.869 18.8309 13.5377 17.5183 13.5377 16.1246C13.5377 15.3496 13.644 14.6059 13.8315 13.8996L13.8377 13.8934C13.9314 13.5308 14.0502 13.1871 14.1939 12.8496C15.2815 9.84337 17.7252 7.88086 20.5002 7.88086C23.2752 7.88086 25.7189 9.84337 26.8065 12.8496C26.9502 13.1871 27.0689 13.5308 27.1627 13.8934L27.1689 13.8996C27.3564 14.6059 27.4627 15.3496 27.4627 16.1246C27.4627 17.5183 27.1314 18.8309 26.5439 19.9621H26.7064C28.4877 19.9621 29.969 18.6684 30.2502 16.9809C30.5314 17.0309 30.7689 17.1434 30.9127 17.2996C30.9815 17.3746 31.1815 17.5996 30.9815 18.1559C30.4127 19.7934 28.5814 20.6621 27.1877 20.8996C26.8502 20.9621 26.6189 21.2809 26.6815 21.6246C26.7314 21.9246 27.0002 22.1434 27.2939 22.1434C27.3314 22.1434 27.3689 22.1371 27.4064 22.1309C29.2127 21.8184 31.4127 20.7183 32.1627 18.5683C32.4502 17.7559 32.3314 17.0058 31.8377 16.4621C31.4565 16.0434 30.8814 15.7871 30.2314 15.7183C30.1002 15.0309 29.7627 14.3933 29.2502 13.8684C28.9439 13.5746 28.594 13.3371 28.2189 13.1683C27.119 9.24961 24.0315 6.63086 20.5002 6.63086C16.9627 6.63086 13.8814 9.25587 12.7815 13.1746C12.4002 13.3434 12.0502 13.5809 11.7377 13.8808C11.0689 14.5621 10.7002 15.4559 10.7002 16.4059C10.7002 18.3683 12.3127 19.9621 14.2939 19.9621Z" fill="#F4F4F4"/>
</svg>
