<svg width="54" height="54" viewBox="0 0 54 54" fill="none" xmlns="http://www.w3.org/2000/svg">
<path d="M52.5706 39.4077L45.1567 32.0094C42.5089 29.3671 38.0076 30.4242 36.9485 33.859C36.1541 36.2371 33.5063 37.5583 31.1233 37.0297C25.8276 35.7086 18.6785 28.8387 17.3546 23.29C16.5602 20.9118 18.1489 18.2696 20.532 17.477C23.9742 16.4201 25.0333 11.9282 22.3855 9.28602L14.9716 1.88767C12.8533 0.0380933 9.6759 0.0380933 7.82244 1.88767L2.79157 6.90796C-2.23928 12.1925 3.32114 26.1964 15.7659 38.6151C28.2107 51.0337 42.2441 56.8468 47.5398 51.5621L52.5706 46.5418C54.4242 44.428 54.4242 41.2573 52.5706 39.4077Z" fill="#F4F4F4"/>
</svg>
