<svg width="41" height="41" viewBox="0 0 41 41" fill="none" xmlns="http://www.w3.org/2000/svg">
<path d="M33.0924 27.1731L29.0434 24.3441C28.5139 23.9749 27.895 23.7802 27.2532 23.7802C26.2327 23.7802 25.2747 24.2806 24.6912 25.118L23.7513 26.4651C22.176 25.4086 20.4182 23.9333 18.7425 22.2579C17.067 20.5825 15.5921 18.8247 14.5359 17.2494L15.8823 16.3094C16.5687 15.8315 17.0271 15.1156 17.1726 14.2941C17.3179 13.4731 17.1348 12.6437 16.6563 11.957L13.8279 7.90796C13.2365 7.06201 12.2822 6.55664 11.2748 6.55664C10.9257 6.55664 10.5833 6.61829 10.2573 6.73853C9.88717 6.87524 9.54232 7.04309 9.20419 7.25549L8.6451 7.64917C8.50533 7.75781 8.37533 7.87683 8.25082 8.00134C7.56875 8.68311 7.08474 9.54614 6.81161 10.5667C5.64614 14.9355 8.53341 21.542 13.9961 27.0046C18.5835 31.592 24.0946 34.4418 28.3784 34.4424C29.112 34.4424 29.8039 34.3569 30.4344 34.1885C31.4549 33.9156 32.3179 33.4316 33.0003 32.7493C33.1242 32.6254 33.2426 32.4954 33.3695 32.3312L33.7635 31.769C33.9561 31.4614 34.1236 31.1166 34.2622 30.7437C34.7386 29.4558 34.2576 27.9873 33.0924 27.1731Z" fill="#F4F4F4"/>
</svg>
