<svg width="36" height="37" viewBox="0 0 36 37" fill="none" xmlns="http://www.w3.org/2000/svg">
<g clip-path="url(#clip0_976_2033)">
<path d="M30 12.6001H26V7.6001C26 7.33488 25.8946 7.08053 25.7071 6.89299C25.5196 6.70545 25.2652 6.6001 25 6.6001H3C2.73478 6.6001 2.48043 6.70545 2.29289 6.89299C2.10536 7.08053 2 7.33488 2 7.6001V25.6001C2 25.8653 2.10536 26.1197 2.29289 26.3072C2.48043 26.4947 2.73478 26.6001 3 26.6001H4V8.6001H24V22.0901C23.3875 22.2851 22.8246 22.6104 22.3499 23.0437C21.8752 23.477 21.4999 24.0079 21.25 24.6001H14.43C14.0858 23.7792 13.5059 23.0788 12.7637 22.5875C12.0214 22.0963 11.1501 21.8361 10.26 21.8401C9.41428 21.8588 8.59205 22.1219 7.89266 22.5978C7.19327 23.0737 6.64665 23.7419 6.31884 24.5217C5.99103 25.3016 5.89606 26.1596 6.0454 26.9923C6.19474 27.8249 6.582 28.5965 7.1604 29.2138C7.73879 29.8311 8.48357 30.2677 9.30474 30.4709C10.1259 30.674 10.9884 30.635 11.7878 30.3586C12.5873 30.0822 13.2897 29.5801 13.81 28.9132C14.3303 28.2462 14.6464 27.4428 14.72 26.6001H21C21.1167 27.7003 21.6364 28.7183 22.4589 29.4582C23.2814 30.1981 24.3487 30.6075 25.455 30.6075C26.5613 30.6075 27.6286 30.1981 28.4511 29.4582C29.2736 28.7183 29.7933 27.7003 29.91 26.6001H34V16.6001C34 15.5392 33.5786 14.5218 32.8284 13.7717C32.0783 13.0215 31.0609 12.6001 30 12.6001ZM10.26 28.6001C9.93515 28.6212 9.60943 28.5754 9.30297 28.4656C8.99652 28.3558 8.71585 28.1843 8.47832 27.9617C8.2408 27.7391 8.05146 27.4701 7.92203 27.1714C7.79259 26.8727 7.72581 26.5506 7.72581 26.2251C7.72581 25.8996 7.79259 25.5775 7.92203 25.2788C8.05146 24.9801 8.2408 24.7111 8.47832 24.4885C8.71585 24.2659 8.99652 24.0944 9.30297 23.9846C9.60943 23.8748 9.93515 23.829 10.26 23.8501C10.5849 23.829 10.9106 23.8748 11.217 23.9846C11.5235 24.0944 11.8042 24.2659 12.0417 24.4885C12.2792 24.7111 12.4685 24.9801 12.598 25.2788C12.7274 25.5775 12.7942 25.8996 12.7942 26.2251C12.7942 26.5506 12.7274 26.8727 12.598 27.1714C12.4685 27.4701 12.2792 27.7391 12.0417 27.9617C11.8042 28.1843 11.5235 28.3558 11.217 28.4656C10.9106 28.5754 10.5849 28.6212 10.26 28.6001ZM25.43 28.6001C24.9647 28.5766 24.5165 28.4171 24.141 28.1412C23.7655 27.8654 23.4793 27.4854 23.3177 27.0485C23.1561 26.6115 23.1264 26.1367 23.2321 25.6829C23.3379 25.2292 23.5745 24.8164 23.9126 24.4959C24.2507 24.1754 24.6755 23.9611 25.1342 23.8797C25.593 23.7983 26.0655 23.8534 26.4933 24.038C26.921 24.2227 27.2852 24.5288 27.5406 24.9185C27.796 25.3081 27.9314 25.7642 27.93 26.2301C27.9209 26.5506 27.8488 26.8661 27.7177 27.1587C27.5867 27.4513 27.3992 27.7151 27.1661 27.9352C26.933 28.1553 26.6588 28.3273 26.3592 28.4414C26.0596 28.5555 25.7405 28.6094 25.42 28.6001H25.43ZM32 17.6001H26V14.6001H30C30.5304 14.6001 31.0391 14.8108 31.4142 15.1859C31.7893 15.561 32 16.0697 32 16.6001V17.6001Z" fill="#F4F4F4"/>
</g>
<defs>
<clipPath id="clip0_976_2033">
<rect width="36" height="36" fill="white" transform="translate(0 0.600098)"/>
</clipPath>
</defs>
</svg>
