<svg width="32" height="33" viewBox="0 0 32 33" fill="none" xmlns="http://www.w3.org/2000/svg">
<path d="M16 10.6001V12.6001" stroke="#F5F5F5" stroke-width="2" stroke-miterlimit="10" stroke-linecap="round" stroke-linejoin="round"/>
<path d="M16 20.6001V22.6001" stroke="#F5F5F5" stroke-width="2" stroke-miterlimit="10" stroke-linecap="round" stroke-linejoin="round"/>
<path d="M14 20.6001H17C18.1 20.6001 19 19.7001 19 18.6001C19 17.5001 18.1 16.6001 17 16.6001H15C13.9 16.6001 13 15.7001 13 14.6001C13 13.5001 13.9 12.6001 15 12.6001H18" stroke="#F5F5F5" stroke-width="2" stroke-miterlimit="10" stroke-linecap="round" stroke-linejoin="round"/>
<path d="M16 6.6001C21.5 6.6001 26 11.1001 26 16.6001C26 22.1001 21.5 26.6001 16 26.6001C10.5 26.6001 6 22.1001 6 16.6001V13.6001" stroke="#F5F5F5" stroke-width="2" stroke-miterlimit="10" stroke-linecap="round" stroke-linejoin="round"/>
<path d="M10 17.6001L6 13.6001L2 17.6001" stroke="#F5F5F5" stroke-width="2" stroke-miterlimit="10" stroke-linecap="round" stroke-linejoin="round"/>
<path d="M16 2.6001C23.7 2.6001 30 8.9001 30 16.6001C30 24.3001 23.7 30.6001 16 30.6001" stroke="#F5F5F5" stroke-width="2" stroke-miterlimit="10" stroke-linecap="round" stroke-linejoin="round"/>
</svg>
