<svg width="36" height="37" viewBox="0 0 36 37" fill="none" xmlns="http://www.w3.org/2000/svg">
<g clip-path="url(#clip0_976_1989)">
<path d="M9.5 24.6001C7.6 24.6001 6 26.2001 6 28.1001C6 30.0001 7.6 31.6001 9.5 31.6001C11.4 31.6001 13 30.0001 13 28.1001V28.0001C13 26.1001 11.4 24.6001 9.5 24.6001Z" fill="#F4F4F4"/>
<path d="M23.5 31.6001C25.433 31.6001 27 30.0331 27 28.1001C27 26.1671 25.433 24.6001 23.5 24.6001C21.567 24.6001 20 26.1671 20 28.1001C20 30.0331 21.567 31.6001 23.5 31.6001Z" fill="#F4F4F4"/>
<path d="M29.5 15.1001C31 14.2001 32 12.6001 32 10.8001V10.3001C32 10.3001 32 10.3001 32 10.2001C32 7.6001 29.9 5.6001 27.3 5.6001H18.8C16.9 5.6001 15.1 6.8001 14.4 8.6001H5C3.3 8.6001 2 9.9001 2 11.6001V28.6001H4V11.6001C4 11.0001 4.4 10.6001 5 10.6001H15.9L16 9.8001C16.3 8.5001 17.4 7.6001 18.7 7.6001H27.2C28.8 7.6001 30 8.8001 30 10.3001V10.8001C30 12.3001 28.8 13.5001 27.3 13.5001H27H24V22.5001H31.8L32 22.8001V25.6001C32 26.2001 31.6 26.6001 31 26.6001H29V28.6001H31C32.7 28.6001 34 27.3001 34 25.6001V22.3001L29.5 15.1001Z" fill="#F4F4F4"/>
<path d="M26.9 9.6001H19V11.6001H26.9V9.6001Z" fill="#F4F4F4"/>
<path d="M20 22.6001H21.9V13.6001H15V28.6001H16.9V15.6001H20V22.6001Z" fill="#F4F4F4"/>
<path d="M12.9 13.6001H6V20.6001H12.9V13.6001Z" fill="#F4F4F4"/>
</g>
<defs>
<clipPath id="clip0_976_1989">
<rect width="36" height="36" fill="white" transform="translate(0 0.600098)"/>
</clipPath>
</defs>
</svg>
