<svg width="41" height="41" viewBox="0 0 41 41" fill="none" xmlns="http://www.w3.org/2000/svg">
<path d="M35.2407 31.3462L35.2416 31.3472L35.5001 31.5335V17.1172L24.5024 23.6078L35.2407 31.3462Z" fill="#F4F4F4"/>
<path d="M8.34374 11.4189H8.075C6.65623 11.4189 5.5 12.5752 5.5 13.9939V15.6627L8.34374 17.3377V11.4189Z" fill="#F4F4F4"/>
<path d="M32.925 11.4189H32.6562V17.3377L35.5 15.6627V13.9939C35.5 12.5752 34.3438 11.4189 32.925 11.4189Z" fill="#F4F4F4"/>
<path d="M34.5094 32.3602L21.5962 23.0545C20.9407 22.5821 20.0593 22.5821 19.4038 23.0545L6.4903 32.3602L5.5 33.0738V33.9938C5.5 34.339 5.77985 34.6188 6.125 34.6188H34.875C35.2205 34.6188 35.5 34.339 35.5 33.9938V33.0739L34.5104 32.3606C34.51 32.3604 34.5097 32.3605 34.5094 32.3602Z" fill="#F4F4F4"/>
<path d="M9.5871 28.5879L16.4978 23.6079L5.5 17.1172V31.5331L9.58661 28.5881L9.5871 28.5879Z" fill="#F4F4F4"/>
<path d="M17.8498 12.1254C17.7998 12.1004 17.7311 12.0879 17.6436 12.0879C17.4686 12.0879 17.2248 12.1379 16.9685 12.2629C16.4498 12.5191 16.0685 13.0254 16.0061 13.5566C15.9498 13.9879 16.1748 14.6816 16.6248 14.7441C16.731 14.7566 16.8998 14.7566 17.1186 14.5504C17.6561 14.0504 17.9686 12.8754 17.9561 12.2629C17.9186 12.1566 17.8748 12.1316 17.8498 12.1254Z" fill="#F4F4F4"/>
<path d="M18.675 22.0381C19.7688 21.2506 21.2312 21.2506 22.325 22.0381L23.3938 22.8068L31.4063 18.0818V8.88184C31.4063 8.53184 31.1313 8.25684 30.7813 8.25684H25.7375V7.00684C25.7375 6.66306 25.4563 6.38184 25.1125 6.38184H10.2188C9.87501 6.38184 9.59375 6.66306 9.59375 7.00684V18.0818L17.6063 22.8068L18.675 22.0381ZM25.85 11.4443H28.5188C28.8688 11.4443 29.1438 11.7256 29.1438 12.0693C29.1438 12.4193 28.8688 12.6943 28.5188 12.6943H25.85C25.5063 12.6943 25.225 12.4193 25.225 12.0693C25.225 11.7256 25.5063 11.4443 25.85 11.4443ZM25.85 14.1068H28.5188C28.8688 14.1068 29.1438 14.3881 29.1438 14.7318C29.1438 15.0756 28.8688 15.3568 28.5188 15.3568H25.85C25.5063 15.3568 25.225 15.0756 25.225 14.7318C25.225 14.3881 25.5063 14.1068 25.85 14.1068ZM14.9188 17.4568C13.8375 16.8443 13.0563 15.8443 12.725 14.6506C12.4 13.4506 12.55 12.2006 13.1625 11.1193C13.775 10.0381 14.7688 9.26308 15.9688 8.93181C18.4125 8.25058 20.95 9.66934 21.6625 12.0881C21.675 12.1131 21.6813 12.1381 21.6875 12.1693C21.6937 12.1818 21.7 12.1943 21.7 12.2068C21.7063 12.2256 21.7063 12.2381 21.7063 12.2568C21.9312 13.3943 21.5812 14.5256 20.775 15.2006C20.3813 15.5256 19.8938 15.6568 19.4438 15.5568C19.0375 15.4693 18.7 15.2068 18.4875 14.8193C18.3375 15.0631 18.1688 15.2818 17.9688 15.4631C17.5937 15.8193 17.1563 16.0006 16.7 16.0006C16.6187 16.0006 16.5375 15.9943 16.4563 15.9818C15.275 15.8193 14.6312 14.5193 14.7625 13.4068C14.8813 12.4506 15.5188 11.5818 16.425 11.1381C16.6875 11.0131 17.6 10.6256 18.375 10.9881C18.6625 11.1193 19.025 11.4006 19.1813 11.9943C19.1875 12.0193 19.1937 12.0381 19.1937 12.0631C19.2 12.0881 19.2 12.1131 19.2 12.1318C19.2312 12.6068 19.2688 12.8568 19.3625 13.3631L19.3813 13.4693C19.4312 13.7381 19.475 13.9881 19.5625 14.1818C19.5938 14.2443 19.6438 14.3193 19.7125 14.3381C19.7875 14.3506 19.8813 14.3193 19.975 14.2381C20.5125 13.7881 20.5875 13.0506 20.4812 12.5068C19.9812 10.7006 18.1125 9.63181 16.3 10.1318C15.425 10.3756 14.7 10.9443 14.25 11.7318C13.8062 12.5256 13.6875 13.4381 13.9313 14.3131C14.175 15.1881 14.7437 15.9193 15.5312 16.3631C16.325 16.8131 17.2375 16.9256 18.1125 16.6881C18.35 16.6193 18.5813 16.5256 18.8 16.4131C19.1 16.2568 19.4813 16.3693 19.6438 16.6756C19.8 16.9818 19.6875 17.3568 19.3813 17.5193C19.0812 17.6756 18.7687 17.8006 18.45 17.8881C18.0375 18.0068 17.6188 18.0631 17.2 18.0631C16.4063 18.0631 15.625 17.8568 14.9188 17.4568Z" fill="#F4F4F4"/>
</svg>
