<svg width="240" height="28" viewBox="0 0 240 28" fill="none" xmlns="http://www.w3.org/2000/svg">
<g clip-path="url(#clip0_861_5325)">
<path d="M33.4983 1.99825H40.0274V21.2663H41.9047V1.99825H48.2582V0.354004H33.4983V1.99825Z" fill="#F4F4F4"/>
<path d="M53.9779 0.354004H52.1006V21.2663H53.9779V0.354004Z" fill="#F4F4F4"/>
<path d="M72.4016 19.4305L64.4965 0.354004H60.927V21.2663H62.9959V2.07488L70.9841 21.2057L71.0064 21.2663H73.6915L81.9096 2.06849V21.2663H83.9752V0.354004H80.4409L72.4016 19.4305Z" fill="#F4F4F4"/>
<path d="M92.8495 11.3114H101.524V9.66717H92.8495V1.99825H102.191V0.354004H90.9722V21.2663H102.453V19.6189H92.8495V11.3114Z" fill="#F4F4F4"/>
<path d="M112.595 1.99825H119.124V21.2663H121.001V1.99825H127.355V0.354004H112.595V1.99825Z" fill="#F4F4F4"/>
<path d="M145.883 3.05836C145.113 2.10374 144.149 1.34706 143.019 0.810688C141.889 0.274311 140.586 0.00292969 139.146 0.00292969C137.706 0.00292969 136.455 0.267926 135.305 0.794724C134.156 1.32152 133.176 2.08778 132.397 3.07113C131.618 4.05449 131.024 5.21026 130.625 6.51289C130.229 7.81232 130.025 9.26501 130.025 10.8358C130.025 12.4066 130.232 13.8593 130.638 15.1588C131.046 16.4614 131.643 17.6044 132.41 18.5558C133.179 19.5105 134.143 20.2671 135.273 20.8035C136.404 21.3399 137.706 21.6113 139.146 21.6113C140.586 21.6113 141.86 21.3431 142.987 20.8195C144.117 20.2927 145.082 19.5424 145.851 18.5878C146.62 17.6363 147.214 16.4869 147.623 15.1747C148.032 13.8657 148.236 12.4066 148.236 10.8358C148.236 9.26501 148.035 7.80275 147.636 6.48415C147.237 5.16237 146.646 4.00979 145.877 3.05517L145.883 3.05836ZM145.918 14.3957C145.621 15.4908 145.168 16.4678 144.571 17.2947C143.974 18.1216 143.214 18.7793 142.31 19.255C141.41 19.7276 140.347 19.9702 139.149 19.9702C137.952 19.9702 136.803 19.7148 135.902 19.2135C135.002 18.7123 134.249 18.0418 133.671 17.2245C133.09 16.4071 132.646 15.4461 132.349 14.367C132.052 13.2878 131.902 12.1001 131.902 10.839C131.902 9.5779 132.052 8.38382 132.349 7.2951C132.646 6.20958 133.109 5.22303 133.728 4.36738C134.344 3.51492 135.12 2.84126 136.03 2.36554C136.94 1.89302 137.99 1.65037 139.149 1.65037C140.308 1.65037 141.356 1.88983 142.269 2.36554C143.179 2.84126 143.945 3.49896 144.542 4.32268C145.142 5.14959 145.599 6.13615 145.905 7.2504C146.212 8.37105 146.365 9.5779 146.365 10.839C146.365 12.1001 146.215 13.2974 145.918 14.3989V14.3957Z" fill="#F4F4F4"/>
<path d="M164.009 0.354004H162.135V21.2663H172.802V19.6189H164.009V0.354004Z" fill="#F4F4F4"/>
<path d="M179.292 11.3114H187.967V9.66717H179.292V1.99825H188.637V0.354004H177.415V21.2663H188.896V19.6189H179.292V11.3114Z" fill="#F4F4F4"/>
<path d="M200.435 0.354004H198.299L190.636 21.2663H192.808L195.537 13.7123H203.232L205.93 21.3366H208.018L200.457 0.417858L200.435 0.354004ZM196.026 12.3203L199.327 1.95675L202.932 12.3203H196.026Z" fill="#F4F4F4"/>
<path d="M221.533 12.0523C221.006 11.5957 220.377 11.1711 219.658 10.7912C219.211 10.5549 218.499 10.3218 217.813 10.0983C217.382 9.95787 216.938 9.811 216.574 9.67053C215.824 9.38318 215.16 9.08626 214.598 8.78933C214.036 8.4956 213.56 8.17314 213.18 7.83152C212.804 7.49309 212.519 7.11316 212.334 6.70129C212.146 6.28943 212.053 5.79775 212.053 5.23264C212.053 4.57494 212.184 4.01622 212.446 3.56924C212.708 3.11906 213.053 2.74871 213.474 2.47094C213.899 2.18998 214.394 1.97926 214.952 1.84517C215.514 1.71107 216.099 1.64403 216.686 1.64403C216.852 1.64403 217.06 1.64403 217.289 1.64083C218.155 1.63445 219.342 1.62487 219.92 1.68234C220.591 1.74619 221.325 1.94733 222.168 2.29215L222.264 2.33046L222.762 0.775606L222.679 0.740486C221.772 0.373323 220.798 0.213687 220.147 0.124291C219.211 -0.00341798 217.331 -0.00341797 216.715 -0.00341797C215.917 -0.00341797 215.128 0.0987491 214.368 0.303083C213.608 0.507417 212.903 0.823497 212.28 1.24494C211.651 1.66637 211.137 2.2251 210.754 2.90196C210.371 3.58201 210.176 4.39296 210.176 5.31565C210.176 6.05956 210.301 6.73641 210.546 7.32707C210.792 7.91772 211.147 8.44452 211.597 8.89469C212.044 9.34167 212.609 9.76311 213.27 10.143C213.927 10.5198 214.627 10.8263 215.47 11.1104C216.15 11.3371 216.951 11.634 217.66 11.8927L218.104 12.0555C218.796 12.3077 219.473 12.6749 219.917 13.0357C220.396 13.4252 220.846 13.8115 221.086 14.2617C221.322 14.7054 221.478 15.4238 221.478 16.0432C221.478 16.6626 221.213 17.282 220.961 17.7928C220.728 18.2717 220.396 18.674 219.974 18.9901C219.518 19.3349 218.841 19.6669 218.286 19.8202C217.711 19.9766 216.146 20.1331 215.402 20.1331C214.467 20.1331 212.867 19.9607 211.922 19.801C211.271 19.6903 210.608 19.5328 209.933 19.3285L209.822 19.2934L209.643 20.8514L209.713 20.877C209.972 20.9728 210.154 21.0494 210.301 21.1068C210.722 21.2793 210.862 21.3367 211.632 21.4389C212.73 21.5858 214.917 21.6815 215.878 21.6815C216.839 21.6815 218.065 21.5315 218.838 21.324C219.719 21.0877 220.587 20.695 221.162 20.2767C221.782 19.8266 222.28 19.2327 222.644 18.5144C223.008 17.7992 223.19 16.9372 223.19 15.9602C223.19 15.1205 223.046 14.3638 222.762 13.7157C222.478 13.0676 222.063 12.5057 221.533 12.0427V12.0523Z" fill="#F4F4F4"/>
<path d="M239.93 1.99825V0.354004H228.905V21.2663L239.898 21.2631V19.6189H230.779V11.3114H239.844V9.66717H230.779V1.99825H239.93Z" fill="#F4F4F4"/>
<path d="M239.996 26.0747H33.4976V27.4284H239.996V26.0747Z" fill="#F4F4F4"/>
<path d="M27.1732 27.3329H0V0.159668H27.1732V27.3329ZM1.15896 26.1708H26.0111V1.32182H1.16215V26.174L1.15896 26.1708Z" fill="#F4F4F4"/>
<path d="M6.74361 4.83435H3.11987V4.02979H11.2038V4.83435H7.67908V14.5594H6.74361V4.83435Z" fill="#F4F4F4"/>
<path d="M7.77421 14.655H6.64718V4.92999H3.02344V3.93066H11.299V4.92999H7.77421V14.655ZM6.83874 14.4603H7.57945V4.73842H11.1042V4.12542H3.21819V4.73842H6.84193V14.4634L6.83874 14.4603Z" fill="#F4F4F4"/>
<path d="M13.1657 9.24597H9.54199V8.44141H17.626V9.24597H14.1012V18.971H13.1657V9.24597Z" fill="#F4F4F4"/>
<path d="M14.1963 19.0666H13.0693V9.34161H9.44556V8.34229H17.7211V9.34161H14.1963V19.0666ZM13.2609 18.8719H14.0016V9.14685H17.5263V8.53385H9.63712V9.14685H13.2609V18.8719Z" fill="#F4F4F4"/>
<path d="M17.6812 12.5923H18.5751V22.2439H23.2429V23.0133H17.6812V12.5923Z" fill="#F4F4F4"/>
<path d="M23.3412 23.1124H17.5847V12.4966H18.6734V22.1482H23.3412V23.1124ZM17.7795 22.9176H23.1496V22.3397H18.4819V12.6881H17.7827V22.9176H17.7795Z" fill="#9D2424"/>
</g>
<defs>
<clipPath id="clip0_861_5325">
<rect width="240" height="27.5212" fill="white"/>
</clipPath>
</defs>
</svg>
