<svg width="179" height="34" viewBox="0 0 179 34" fill="none" xmlns="http://www.w3.org/2000/svg">
<g id="Logo" clip-path="url(#clip0_76_794)">
<path id="Vector" d="M16.2732 33.2355C25.2606 33.2355 32.5459 25.9502 32.5459 16.9628V5.57188C32.5459 4.27714 32.0316 3.03543 31.1161 2.11991C30.2006 1.2044 28.9589 0.690063 27.6641 0.690063L17.0869 0.690063V7.82891C17.0869 9.45781 17.1861 11.1453 18.0404 12.5317C18.652 13.5253 19.4702 14.3758 20.4394 15.0254C21.4087 15.6749 22.5063 16.1084 23.6578 16.2964L23.9694 16.3469C24.0979 16.3908 24.2094 16.4738 24.2884 16.5842C24.3673 16.6947 24.4098 16.827 24.4098 16.9628C24.4098 17.0986 24.3673 17.2309 24.2884 17.3414C24.2094 17.4518 24.0979 17.5348 23.9694 17.5787L23.6578 17.6292C21.9753 17.904 20.4217 18.7004 19.2162 19.9058C18.0108 21.1113 17.2144 22.6649 16.9396 24.3474L16.8891 24.659C16.8452 24.7874 16.7622 24.899 16.6518 24.9779C16.5414 25.0569 16.409 25.0994 16.2732 25.0994C16.1375 25.0994 16.0051 25.0569 15.8946 24.9779C15.7842 24.899 15.7012 24.7874 15.6573 24.659L15.6069 24.3474C15.4188 23.1959 14.9853 22.0983 14.3357 21.129C13.6862 20.1598 12.8357 19.3417 11.8422 18.73C10.4557 17.8757 8.76824 17.7764 7.13934 17.7764H0.0200195C0.445551 26.3855 7.55917 33.2355 16.2732 33.2355Z" fill="#1D2633"/>
<path id="Vector_2" d="M0 16.149H7.13885C8.76775 16.149 10.4552 16.0498 11.8417 15.1954C12.9254 14.5277 13.8378 13.6154 14.5055 12.5316C15.3598 11.1452 15.4591 9.45769 15.4591 7.82879V0.689941H4.88182C3.58708 0.689941 2.34537 1.20427 1.42985 2.11979C0.514333 3.03531 0 4.27702 0 5.57176L0 16.149ZM37.7975 2.31721C37.7975 2.74879 37.626 3.1627 37.3209 3.46787C37.0157 3.77304 36.6018 3.94449 36.1702 3.94449C35.7386 3.94449 35.3247 3.77304 35.0196 3.46787C34.7144 3.1627 34.5429 2.74879 34.5429 2.31721C34.5429 1.88563 34.7144 1.47173 35.0196 1.16656C35.3247 0.861386 35.7386 0.689941 36.1702 0.689941C36.6018 0.689941 37.0157 0.861386 37.3209 1.16656C37.626 1.47173 37.7975 1.88563 37.7975 2.31721ZM172.256 10.5382C176.805 10.5382 179 13.7154 179 17.3955V24.3074H174.239V18.2157C174.239 16.5477 173.631 15.171 171.886 15.171C170.14 15.171 169.559 16.5477 169.559 18.2157V24.3065H164.798V18.2157C164.798 16.5477 164.216 15.171 162.47 15.171C160.725 15.171 160.116 16.5477 160.116 18.2157V24.3065H155.357V17.3947C155.357 13.7146 157.551 10.5374 162.1 10.5374C164.586 10.5374 166.385 11.517 167.205 13.1321C168.077 11.517 169.982 10.5366 172.256 10.5366V10.5382ZM146.802 20.0708C148.336 20.0708 148.997 18.6672 148.997 16.9985V11.0671H153.757V17.581C153.757 21.4735 151.483 24.7044 146.802 24.7044C142.12 24.7044 139.846 21.4743 139.846 17.581V11.0671H144.607V16.9985C144.607 18.6664 145.267 20.0708 146.802 20.0708ZM132.846 24.7305C129.858 24.7305 127.927 23.698 126.79 21.6858L130.228 19.7526C130.704 20.5996 131.418 21.0235 132.608 21.0235C133.587 21.0235 134.036 20.6794 134.036 20.2555C134.036 18.6404 127.054 20.2823 127.054 15.1458C127.054 12.6561 129.17 10.644 132.767 10.644C135.914 10.644 137.633 12.1793 138.4 13.6626L134.962 15.6218C134.671 14.8277 133.772 14.3509 132.873 14.3509C132.185 14.3509 131.815 14.6422 131.815 15.0392C131.815 16.6812 138.797 15.1719 138.797 20.1497C138.797 22.9299 136.073 24.7305 132.846 24.7305ZM116.214 30.3974H111.454V17.6608C111.454 13.6089 114.495 10.67 118.727 10.67C122.853 10.67 126 13.8212 126 17.6608C126 21.8974 123.196 24.7044 118.991 24.7044C118.012 24.7044 117.034 24.4131 116.214 23.9624V30.3974ZM118.727 20.2294C120.234 20.2294 121.239 19.0643 121.239 17.6868C121.239 16.2841 120.234 15.145 118.727 15.145C117.219 15.145 116.214 16.2841 116.214 17.6876C116.214 19.0643 117.219 20.2294 118.727 20.2294ZM106.685 9.66435C105.124 9.66435 103.829 8.3666 103.829 6.80442C103.829 5.24224 105.124 3.94449 106.685 3.94449C108.245 3.94449 109.541 5.24224 109.541 6.80442C109.541 8.3666 108.245 9.66435 106.685 9.66435ZM104.305 11.0671H109.066V24.3074H104.305V11.0671ZM95.171 24.7044C91.0451 24.7044 87.8979 21.5272 87.8979 17.6608C87.8979 13.8212 91.0451 10.644 95.171 10.644C99.297 10.644 102.444 13.8212 102.444 17.6608C102.444 21.5272 99.297 24.7044 95.171 24.7044ZM95.171 20.2294C96.6787 20.2294 97.6836 19.0643 97.6836 17.6868C97.6836 16.2841 96.6787 15.119 95.171 15.119C93.6634 15.119 92.6585 16.2841 92.6585 17.6868C92.6585 19.0643 93.6634 20.2294 95.171 20.2294ZM78.9089 30.7945C75.6299 30.7945 73.2492 29.3381 72.0329 26.7426L75.9733 24.6247C76.3964 25.5254 77.1897 26.4521 78.8292 26.4521C80.5492 26.4521 81.6858 25.3659 81.8185 23.4596C81.1838 24.0161 80.1782 24.4392 78.6713 24.4392C74.9945 24.4392 72.032 21.6061 72.032 17.6339C72.032 13.7952 75.18 10.67 79.306 10.67C83.5377 10.67 86.579 13.6097 86.579 17.6608V22.9038C86.579 27.6701 83.2724 30.7945 78.9089 30.7945ZM79.2262 19.965C80.6541 19.965 81.7387 18.9846 81.7387 17.5281C81.7387 16.0986 80.655 15.145 79.2262 15.145C77.8243 15.145 76.7137 16.0986 76.7137 17.529C76.7137 18.9854 77.8243 19.9642 79.2262 19.9642V19.965ZM63.9575 24.7044C59.8316 24.7044 56.6836 21.5272 56.6836 17.6608C56.6836 13.8212 59.8316 10.644 63.9575 10.644C68.0826 10.644 71.2306 13.8212 71.2306 17.6608C71.2306 21.5272 68.0835 24.7044 63.9575 24.7044ZM63.9575 20.2294C65.4652 20.2294 66.47 19.0643 66.47 17.6868C66.47 16.2841 65.4652 15.119 63.9575 15.119C62.4498 15.119 61.445 16.2841 61.445 17.6868C61.445 19.0643 62.4498 20.2294 63.9575 20.2294ZM48.0151 6.43421V19.8055H55.8968V24.3074H47.3536C44.3391 24.3074 43.1227 22.7183 43.1227 20.2026V6.43421H48.0151Z" fill="#1D2633"/>
</g>
<defs>
<clipPath id="clip0_76_794">
<rect width="179" height="32.5455" fill="white" transform="translate(0 0.689941)"/>
</clipPath>
</defs>
</svg>
