<svg width="65" height="66" viewBox="0 0 65 66" fill="none" xmlns="http://www.w3.org/2000/svg">
<g id="Logo" clip-path="url(#clip0_76_304)">
<path id="Vector" d="M64.7203 32.7997C64.7203 50.5943 50.2949 65.0197 32.5003 65.0197C14.7056 65.0197 0.280273 50.5943 0.280273 32.7997C0.280273 15.0051 14.7056 0.579712 32.5003 0.579712C50.2949 0.579712 64.7203 15.0051 64.7203 32.7997Z" fill="#1D2633"/>
<path id="Vector_2" d="M56.4292 41.0266C57.5173 41.0266 58.2912 42.0841 57.882 43.0922C53.8138 53.1172 43.9799 60.1868 32.4949 60.1868C21.0099 60.1868 11.176 53.1172 7.1077 43.0922C6.69853 42.0841 7.47247 41.0266 8.56055 41.0266H56.4292Z" fill="#EDEBDE"/>
<path id="Vector_3" d="M57.882 22.507C58.2912 23.5152 57.5173 24.5727 56.4292 24.5727H8.56054C7.47247 24.5727 6.69853 23.5152 7.1077 22.507C11.176 12.4821 21.0099 5.41248 32.4948 5.41248C43.9799 5.41248 53.8137 12.4821 57.882 22.507Z" fill="#EDEBDE"/>
<path id="Vector_4" d="M56.5318 30.5042C58.342 30.5042 59.2155 31.767 59.2155 33.2298V35.9766H57.3212V33.5561C57.3212 32.8931 57.0791 32.3458 56.3845 32.3458C55.6899 32.3458 55.4584 32.8931 55.4584 33.5561V35.9766H53.5641V33.5561C53.5641 32.8931 53.3326 32.3458 52.6381 32.3458C51.9435 32.3458 51.7014 32.8931 51.7014 33.5561V35.9766H49.8071V33.2298C49.8071 31.767 50.6806 30.5042 52.4907 30.5042C53.48 30.5042 54.1956 30.8935 54.5218 31.5355C54.8691 30.8935 55.6269 30.5042 56.5318 30.5042Z" fill="#EDEBDE"/>
<path id="Vector_5" d="M46.4098 34.2925C47.0202 34.2925 47.2833 33.7347 47.2833 33.0717V30.7144H49.1776V33.3032C49.1776 34.8502 48.2725 36.1342 46.4098 36.1342C44.5471 36.1342 43.6421 34.8502 43.6421 33.3032V30.7144H45.5363V33.0717C45.5363 33.7347 45.7995 34.2925 46.4098 34.2925Z" fill="#EDEBDE"/>
<path id="Vector_6" d="M40.8547 36.1446C39.6656 36.1446 38.8973 35.7342 38.4448 34.9345L39.8129 34.1662C40.0023 34.503 40.2864 34.6713 40.76 34.6713C41.1494 34.6713 41.3283 34.5345 41.3283 34.3662C41.3283 33.7242 38.55 34.3767 38.55 32.335C38.55 31.3458 39.3919 30.546 40.8231 30.546C42.0755 30.546 42.7596 31.1563 43.0648 31.7457L41.6966 32.5245C41.5809 32.2087 41.2231 32.0194 40.8653 32.0194C40.5916 32.0194 40.4443 32.1351 40.4443 32.293C40.4443 32.9454 43.2226 32.3456 43.2226 34.3241C43.2226 35.429 42.1387 36.1446 40.8547 36.1446Z" fill="#EDEBDE"/>
<path id="Vector_7" d="M34.2346 38.397H32.3403V33.3351C32.3403 31.725 33.5506 30.5568 35.2344 30.5568C36.8761 30.5568 38.1284 31.8092 38.1284 33.3351C38.1284 35.0189 37.013 36.1345 35.3396 36.1345C34.9502 36.1345 34.5609 36.0187 34.2346 35.8397V38.397ZM35.2344 34.3559C35.8343 34.3559 36.2341 33.8928 36.2341 33.3456C36.2341 32.7878 35.8343 32.3353 35.2344 32.3353C34.6346 32.3353 34.2346 32.7878 34.2346 33.3456C34.2346 33.8928 34.6346 34.3559 35.2344 34.3559Z" fill="#EDEBDE"/>
<path id="Vector_8" d="M30.4447 30.1569C29.8238 30.1569 29.3081 29.6412 29.3081 29.0203C29.3081 28.3993 29.8238 27.8837 30.4447 27.8837C31.0656 27.8837 31.5813 28.3993 31.5813 29.0203C31.5813 29.6412 31.0656 30.1569 30.4447 30.1569ZM29.4976 30.7146H31.3919V35.9765H29.4976V30.7146Z" fill="#EDEBDE"/>
<path id="Vector_9" d="M25.8653 36.1342C24.2236 36.1342 22.9712 34.8713 22.9712 33.3348C22.9712 31.8089 24.2236 30.546 25.8653 30.546C27.507 30.546 28.7594 31.8089 28.7594 33.3348C28.7594 34.8713 27.507 36.1342 25.8653 36.1342ZM25.8653 34.3556C26.4651 34.3556 26.8651 33.8926 26.8651 33.3454C26.8651 32.7876 26.4651 32.3246 25.8653 32.3246C25.2654 32.3246 24.8655 32.7876 24.8655 33.3454C24.8655 33.8926 25.2654 34.3556 25.8653 34.3556Z" fill="#EDEBDE"/>
<path id="Vector_10" d="M19.3944 38.5549C18.0894 38.5549 17.1423 37.9761 16.6582 36.9448L18.2263 36.1029C18.3946 36.4607 18.7104 36.829 19.3628 36.829C20.0469 36.829 20.4994 36.3975 20.552 35.6398C20.2995 35.8608 19.8995 36.0292 19.2997 36.0292C17.8369 36.0292 16.6582 34.9032 16.6582 33.3245C16.6582 31.7986 17.9105 30.5568 19.5523 30.5568C21.236 30.5568 22.4463 31.725 22.4463 33.3351V35.4188C22.4463 37.3131 21.1308 38.5549 19.3944 38.5549ZM19.5207 34.2506C20.089 34.2506 20.5204 33.8612 20.5204 33.2825C20.5204 32.7142 20.089 32.3353 19.5207 32.3353C18.9629 32.3353 18.5209 32.7142 18.5209 33.2825C18.5209 33.8612 18.9629 34.2506 19.5207 34.2506Z" fill="#EDEBDE"/>
<path id="Vector_11" d="M13.441 36.1342C11.7993 36.1342 10.5469 34.8713 10.5469 33.3348C10.5469 31.8089 11.7993 30.546 13.441 30.546C15.0826 30.546 16.335 31.8089 16.335 33.3348C16.335 34.8713 15.0826 36.1342 13.441 36.1342ZM13.441 34.3556C14.0408 34.3556 14.4407 33.8926 14.4407 33.3454C14.4407 32.7876 14.0408 32.3246 13.441 32.3246C12.8411 32.3246 12.4412 32.7876 12.4412 33.3454C12.4412 33.8926 12.8411 34.3556 13.441 34.3556Z" fill="#EDEBDE"/>
<path id="Vector_12" d="M7.09485 28.8727V34.1872H10.2309V35.9762H6.83176C5.63204 35.9762 5.14795 35.3448 5.14795 34.345V28.8727H7.09485Z" fill="#EDEBDE"/>
<path id="Vector_13" d="M27.6675 5.83757C29.2364 5.55823 30.8514 5.41248 32.5006 5.41248C34.1497 5.41248 35.7647 5.55823 37.3335 5.83756V24.5727H27.6675V5.83757Z" fill="#D01F1F"/>
<path id="Vector_14" d="M37.3322 41.0266H27.6653C27.645 45.2296 26.8792 49.3962 25.4031 53.3325L23.4116 58.6431C26.2551 59.643 29.3134 60.1868 32.4988 60.1868C35.6841 60.1868 38.7424 59.643 41.5859 58.6431L39.5944 53.3325C38.1183 49.3962 37.3525 45.2296 37.3322 41.0266Z" fill="#D01F1F"/>
<path id="Vector_15" d="M37.3354 5.83813C40.832 6.4607 44.099 7.74678 47.0014 9.56155V24.5733H37.3354V5.83813Z" fill="#306A9F"/>
<path id="Vector_16" d="M41.5891 58.6431C45.9851 57.0975 49.8677 54.4619 52.9127 51.0608L52.4375 50.7584C49.0999 48.6344 47.0598 44.9747 47.0023 41.0266H37.3354C37.3557 45.2296 38.1215 49.3962 39.5977 53.3325L41.5891 58.6431Z" fill="#306A9F"/>
<path id="Vector_17" d="M17.9995 9.56155C20.902 7.74678 24.1689 6.4607 27.6655 5.83813V24.5733H17.9995V9.56155Z" fill="#DEB038"/>
<path id="Vector_18" d="M18.0004 41.0266H27.6672C27.6469 45.2117 26.8876 49.3606 25.4238 53.2821L23.4135 58.6431C19.0175 57.0975 15.1349 54.4619 12.0898 51.0608L12.565 50.7584C15.9027 48.6344 17.9428 44.9747 18.0004 41.0266Z" fill="#DEB038"/>
</g>
<defs>
<clipPath id="clip0_76_304">
<rect width="64.44" height="64.44" fill="white" transform="translate(0.278809 0.579712)"/>
</clipPath>
</defs>
</svg>
