<svg width="179" height="72" viewBox="0 0 179 72" fill="none" xmlns="http://www.w3.org/2000/svg">
<g id="Logo">
<path id="Vector" d="M25.7258 13.5714C26.0924 11.8315 27.8267 10.4201 29.5934 10.4201H39.1984L31.2107 48.2405H21.6058C19.8377 48.2405 18.7012 46.8305 19.0692 45.0892L25.7258 13.5714ZM57.7427 13.5714C58.1107 11.8315 59.8436 10.4201 61.6103 10.4201H71.2152L63.2276 48.2405H53.6227C51.8545 48.2405 50.7181 46.8305 51.0861 45.0892L57.7427 13.5714ZM121.778 13.5714C122.144 11.8315 123.876 10.4201 125.645 10.4201H135.25L127.263 48.2405H117.656C115.888 48.2405 114.753 46.8305 115.121 45.0892L121.778 13.5714ZM74.4174 10.4201H84.0223C85.7904 10.4201 86.9269 11.8301 86.5589 13.5714L79.9022 45.0892C79.5356 46.8305 77.8028 48.2405 76.0346 48.2405H66.4297L74.4174 10.4201ZM138.452 10.4201H148.057C149.826 10.4201 150.962 11.8301 150.594 13.5714L143.936 45.0892C143.569 46.8305 141.838 48.2405 140.07 48.2405H130.463L138.452 10.4201ZM89.761 13.5714C90.1276 11.8315 91.859 10.4201 93.6272 10.4201H103.234L95.2445 48.2405H85.6395C83.8714 48.2405 82.7349 46.8305 83.1044 45.0892L89.7596 13.5714H89.761ZM106.434 10.4201H116.041C117.809 10.4201 118.944 11.8301 118.576 13.5714L108.592 60.8488C108.222 62.5887 106.491 64.0001 104.722 64.0001H95.1162L106.434 10.4201ZM37.0749 35.6337H49.8819L47.8854 45.0892C47.5174 46.8305 45.7845 48.2405 44.0177 48.2405H34.4114L37.0735 35.6351L37.0749 35.6337ZM81.7733 51.3933H94.5789L91.9169 64.0001H82.3119C80.5424 64.0001 79.4073 62.5901 79.7753 60.8488L81.7733 51.3933ZM116.535 54.3247L114.914 62.0036C114.843 62.3335 114.733 62.4237 114.398 62.4237H113.66C113.325 62.4237 113.252 62.3335 113.322 62.0036L114.944 54.3247C115.014 53.9962 115.124 53.9045 115.46 53.9045H116.197C116.533 53.9045 116.606 53.9962 116.535 54.3247ZM118.667 59.505H118.517C118.356 59.505 118.299 59.5502 118.267 59.7095L117.782 62.0036C117.711 62.3335 117.6 62.4237 117.266 62.4237H116.527C116.193 62.4237 116.12 62.3335 116.189 62.0036L117.81 54.3247C117.881 53.9962 117.993 53.9045 118.328 53.9045H119.85C121.604 53.9045 122.269 54.5291 121.944 56.0618L121.674 57.3463C121.349 58.8804 120.421 59.505 118.667 59.505ZM119.113 55.6994L118.69 57.7101C118.655 57.8694 118.691 57.9145 118.853 57.9145H119.096C119.66 57.9145 119.963 57.6875 120.086 57.108L120.255 56.3015C120.378 55.7234 120.172 55.495 119.606 55.495H119.364C119.203 55.495 119.147 55.5401 119.113 55.6994ZM124.384 56.9374L125.582 58.2558C126.211 58.9368 126.298 59.3457 126.138 60.1071L126.095 60.3115C125.792 61.7427 125.07 62.5379 123.397 62.5379C121.724 62.5379 121.311 61.8682 121.697 60.038L121.745 59.8124C121.816 59.4825 121.927 59.3908 122.261 59.3908H123.045C123.381 59.3908 123.454 59.4825 123.384 59.811L123.278 60.3115C123.182 60.7656 123.329 60.9475 123.732 60.9475C124.137 60.9475 124.357 60.7783 124.444 60.3694L124.489 60.1522C124.557 59.8336 124.52 59.6756 124.173 59.3006L123.045 58.0852C122.414 57.4154 122.333 57.0277 122.494 56.2663L122.546 56.0181C122.849 54.5869 123.571 53.7903 125.244 53.7903C126.917 53.7903 127.33 54.4615 126.944 56.2902L126.896 56.5172C126.826 56.8472 126.714 56.9374 126.38 56.9374H125.595C125.261 56.9374 125.187 56.8472 125.256 56.5172L125.362 56.0181C125.458 55.5627 125.313 55.3822 124.908 55.3822C124.505 55.3822 124.283 55.5514 124.197 55.9603L124.157 56.1535C124.086 56.4834 124.123 56.6427 124.384 56.9374ZM131.14 54.3247C131.211 53.9962 131.321 53.9045 131.656 53.9045H132.394C132.729 53.9045 132.803 53.9962 132.732 54.3247L131.525 60.0394C131.139 61.8682 130.444 62.5379 128.77 62.5379C127.098 62.5379 126.685 61.8682 127.071 60.038L128.278 54.3247C128.348 53.9962 128.46 53.9045 128.794 53.9045H129.533C129.867 53.9045 129.94 53.9962 129.871 54.3247L128.606 60.3115C128.511 60.7656 128.669 60.9475 129.107 60.9475C129.533 60.9475 129.78 60.7656 129.875 60.3115L131.14 54.3247ZM135.943 58.9481C135.947 59.0397 135.977 59.0609 136.034 59.0609C136.091 59.0609 136.132 59.0397 136.174 58.9481L138.168 54.2006C138.265 53.9609 138.381 53.9045 138.67 53.9045H139.789C140.123 53.9045 140.197 53.9962 140.128 54.3247L138.506 62.0036C138.436 62.3335 138.323 62.4237 137.989 62.4237H137.458C137.124 62.4237 137.05 62.3335 137.12 62.0036L137.898 58.3234C137.92 58.2219 137.901 58.198 137.832 58.198C137.786 58.198 137.733 58.2219 137.705 58.3009L136.095 62.0501C135.979 62.3222 135.831 62.4237 135.497 62.4237H135.184C134.837 62.4237 134.733 62.3222 134.733 62.0501L134.693 58.2995C134.686 58.2205 134.668 58.198 134.61 58.198C134.541 58.198 134.513 58.2219 134.492 58.3234L133.715 62.0036C133.644 62.3335 133.534 62.4237 133.199 62.4237H132.669C132.333 62.4237 132.26 62.3335 132.33 62.0036L133.952 54.3247C134.022 53.9962 134.134 53.9045 134.468 53.9045H135.427C135.83 53.9045 135.96 53.9962 135.957 54.3938L135.941 58.9481H135.943ZM160 10.4201C160 11.9781 158.745 13.2401 157.198 13.2401C156.829 13.239 156.464 13.1652 156.123 13.0228C155.783 12.8805 155.474 12.6724 155.213 12.4106C154.953 12.1487 154.747 11.8381 154.607 11.4966C154.467 11.155 154.395 10.7892 154.397 10.4201C154.397 8.86205 155.652 7.6001 157.198 7.6001C158.745 7.6001 160 8.86205 160 10.4201Z" fill="#1D2633"/>
</g>
</svg>
