<svg width="179" height="72" viewBox="0 0 179 72" fill="none" xmlns="http://www.w3.org/2000/svg">
<g clip-path="url(#clip0_848_14583)">
<g clip-path="url(#clip1_848_14583)">
<path d="M16.2732 52.2354C25.2606 52.2354 32.5459 44.9501 32.5459 35.9627V24.5718C32.5459 23.277 32.0316 22.0353 31.1161 21.1198C30.2006 20.2043 28.9589 19.6899 27.6641 19.6899H17.0869V26.8288C17.0869 28.4577 17.1861 30.1452 18.0404 31.5316C18.652 32.5252 19.4702 33.3757 20.4394 34.0252C21.4087 34.6748 22.5063 35.1083 23.6578 35.2963L23.9694 35.3467C24.0979 35.3907 24.2094 35.4736 24.2884 35.5841C24.3673 35.6945 24.4098 35.8269 24.4098 35.9627C24.4098 36.0984 24.3673 36.2308 24.2884 36.3412C24.2094 36.4517 24.0979 36.5347 23.9694 36.5786L23.6578 36.629C21.9753 36.9039 20.4217 37.7002 19.2162 38.9057C18.0108 40.1111 17.2144 41.6648 16.9396 43.3472L16.8891 43.6589C16.8452 43.7873 16.7622 43.8988 16.6518 43.9778C16.5414 44.0568 16.409 44.0992 16.2732 44.0992C16.1375 44.0992 16.0051 44.0568 15.8946 43.9778C15.7842 43.8988 15.7012 43.7873 15.6573 43.6589L15.6069 43.3472C15.4188 42.1957 14.9853 41.0981 14.3357 40.1289C13.6862 39.1597 12.8357 38.3415 11.8422 37.7299C10.4557 36.8756 8.76824 36.7763 7.13934 36.7763H0.0200195C0.445551 45.3854 7.55917 52.2354 16.2732 52.2354Z" fill="#9D2424" fill-opacity="0.48"/>
<path d="M0 35.149H7.13885C8.76775 35.149 10.4552 35.0498 11.8417 34.1954C12.9254 33.5277 13.8378 32.6154 14.5055 31.5316C15.3598 30.1452 15.4591 28.4577 15.4591 26.8288V19.6899H4.88182C3.58708 19.6899 2.34537 20.2043 1.42985 21.1198C0.514333 22.0353 0 23.277 0 24.5718L0 35.149ZM37.7975 21.3172C37.7975 21.7488 37.626 22.1627 37.3209 22.4679C37.0157 22.773 36.6018 22.9445 36.1702 22.9445C35.7386 22.9445 35.3247 22.773 35.0196 22.4679C34.7144 22.1627 34.5429 21.7488 34.5429 21.3172C34.5429 20.8856 34.7144 20.4717 35.0196 20.1666C35.3247 19.8614 35.7386 19.6899 36.1702 19.6899C36.6018 19.6899 37.0157 19.8614 37.3209 20.1666C37.626 20.4717 37.7975 20.8856 37.7975 21.3172ZM172.256 29.5382C176.805 29.5382 179 32.7154 179 36.3955V43.3074H174.239V37.2157C174.239 35.5477 173.631 34.171 171.886 34.171C170.14 34.171 169.559 35.5477 169.559 37.2157V43.3065H164.798V37.2157C164.798 35.5477 164.216 34.171 162.47 34.171C160.725 34.171 160.116 35.5477 160.116 37.2157V43.3065H155.357V36.3947C155.357 32.7146 157.551 29.5374 162.1 29.5374C164.586 29.5374 166.385 30.517 167.205 32.1321C168.077 30.517 169.982 29.5366 172.256 29.5366V29.5382ZM146.802 39.0708C148.336 39.0708 148.997 37.6672 148.997 35.9985V30.0671H153.757V36.581C153.757 40.4735 151.483 43.7044 146.802 43.7044C142.12 43.7044 139.846 40.4743 139.846 36.581V30.0671H144.607V35.9985C144.607 37.6664 145.267 39.0708 146.802 39.0708ZM132.846 43.7305C129.858 43.7305 127.927 42.698 126.79 40.6858L130.228 38.7526C130.704 39.5996 131.418 40.0235 132.608 40.0235C133.587 40.0235 134.036 39.6794 134.036 39.2555C134.036 37.6404 127.054 39.2823 127.054 34.1458C127.054 31.6561 129.17 29.644 132.767 29.644C135.914 29.644 137.633 31.1793 138.4 32.6626L134.962 34.6218C134.671 33.8277 133.772 33.3509 132.873 33.3509C132.185 33.3509 131.815 33.6422 131.815 34.0392C131.815 35.6812 138.797 34.1719 138.797 39.1497C138.797 41.9299 136.073 43.7305 132.846 43.7305ZM116.214 49.3974H111.454V36.6608C111.454 32.6089 114.495 29.67 118.727 29.67C122.853 29.67 126 32.8212 126 36.6608C126 40.8974 123.196 43.7044 118.991 43.7044C118.012 43.7044 117.034 43.4131 116.214 42.9624V49.3974ZM118.727 39.2294C120.234 39.2294 121.239 38.0643 121.239 36.6868C121.239 35.2841 120.234 34.145 118.727 34.145C117.219 34.145 116.214 35.2841 116.214 36.6876C116.214 38.0643 117.219 39.2294 118.727 39.2294ZM106.685 28.6644C105.124 28.6644 103.829 27.3666 103.829 25.8044C103.829 24.2422 105.124 22.9445 106.685 22.9445C108.245 22.9445 109.541 24.2422 109.541 25.8044C109.541 27.3666 108.245 28.6644 106.685 28.6644ZM104.305 30.0671H109.066V43.3074H104.305V30.0671ZM95.171 43.7044C91.0451 43.7044 87.8979 40.5272 87.8979 36.6608C87.8979 32.8212 91.0451 29.644 95.171 29.644C99.297 29.644 102.444 32.8212 102.444 36.6608C102.444 40.5272 99.297 43.7044 95.171 43.7044ZM95.171 39.2294C96.6787 39.2294 97.6836 38.0643 97.6836 36.6868C97.6836 35.2841 96.6787 34.119 95.171 34.119C93.6634 34.119 92.6585 35.2841 92.6585 36.6868C92.6585 38.0643 93.6634 39.2294 95.171 39.2294ZM78.9089 49.7945C75.6299 49.7945 73.2492 48.3381 72.0329 45.7426L75.9733 43.6247C76.3964 44.5254 77.1897 45.4521 78.8292 45.4521C80.5492 45.4521 81.6858 44.3659 81.8185 42.4596C81.1838 43.0161 80.1782 43.4392 78.6713 43.4392C74.9945 43.4392 72.032 40.6061 72.032 36.6339C72.032 32.7952 75.18 29.67 79.306 29.67C83.5377 29.67 86.579 32.6097 86.579 36.6608V41.9038C86.579 46.6701 83.2724 49.7945 78.9089 49.7945ZM79.2262 38.965C80.6541 38.965 81.7387 37.9846 81.7387 36.5281C81.7387 35.0986 80.655 34.145 79.2262 34.145C77.8243 34.145 76.7137 35.0986 76.7137 36.529C76.7137 37.9854 77.8243 38.9642 79.2262 38.9642V38.965ZM63.9575 43.7044C59.8316 43.7044 56.6836 40.5272 56.6836 36.6608C56.6836 32.8212 59.8316 29.644 63.9575 29.644C68.0826 29.644 71.2306 32.8212 71.2306 36.6608C71.2306 40.5272 68.0835 43.7044 63.9575 43.7044ZM63.9575 39.2294C65.4652 39.2294 66.47 38.0643 66.47 36.6868C66.47 35.2841 65.4652 34.119 63.9575 34.119C62.4498 34.119 61.445 35.2841 61.445 36.6868C61.445 38.0643 62.4498 39.2294 63.9575 39.2294ZM48.0151 25.4342V38.8055H55.8968V43.3074H47.3536C44.3391 43.3074 43.1227 41.7183 43.1227 39.2026V25.4342H48.0151Z" fill="#9D2424" fill-opacity="0.48"/>
</g>
</g>
<defs>
<clipPath id="clip0_848_14583">
<rect width="179" height="71.6" fill="white"/>
</clipPath>
<clipPath id="clip1_848_14583">
<rect width="179" height="32.5455" fill="white" transform="translate(0 19.6899)"/>
</clipPath>
</defs>
</svg>
